<svg xmlns="http://www.w3.org/2000/svg" viewBox="0 0 141.84 34.6"><title>fishpond</title><path class="brand-path" d="M7.74,0a10.26,10.26,0,0,1,2.32.22,9.22,9.22,0,0,1,1.5.43l-.69,3.53a9.56,9.56,0,0,0-1.2-.33,8.13,8.13,0,0,0-1.53-.14,3.39,3.39,0,0,0-3,1.15,5.08,5.08,0,0,0-.81,3V9.11h6.91v3.63H4.36v15.2H0V7.78A8.11,8.11,0,0,1,1.91,2.05Q3.82,0,7.74,0ZM19.4,3.6a2.47,2.47,0,0,1-.79,1.94,2.69,2.69,0,0,1-1.87.72,2.75,2.75,0,0,1-1.91-.72A2.47,2.47,0,0,1,14,3.6a2.53,2.53,0,0,1,.79-2A2.75,2.75,0,0,1,16.74.9a2.69,2.69,0,0,1,1.87.72A2.53,2.53,0,0,1,19.4,3.6Zm-.5,24.34H14.54V9.11H18.9Z"/><path class="brand-path" d="M29.2,24.8a5.69,5.69,0,0,0,2.52-.41A1.49,1.49,0,0,0,32.51,23a1.83,1.83,0,0,0-.85-1.55,12.17,12.17,0,0,0-2.79-1.33c-.79-.29-1.52-.6-2.18-.92A7.36,7.36,0,0,1,25,18a4.67,4.67,0,0,1-1.13-1.57,5.39,5.39,0,0,1-.41-2.25,4.92,4.92,0,0,1,1.9-4.09,8.25,8.25,0,0,1,5.19-1.49A15.57,15.57,0,0,1,33.7,9,15.24,15.24,0,0,1,36,9.54l-.79,3.53a10.32,10.32,0,0,0-1.83-.6,11.17,11.17,0,0,0-2.6-.27,4.56,4.56,0,0,0-2.16.45A1.48,1.48,0,0,0,27.76,14a2,2,0,0,0,.16.83,1.71,1.71,0,0,0,.56.66,5.58,5.58,0,0,0,1,.62c.43.2,1,.41,1.58.63a23.2,23.2,0,0,1,2.63,1.13,6.86,6.86,0,0,1,1.78,1.26,4.35,4.35,0,0,1,1,1.6,6.3,6.3,0,0,1,.32,2.16,4.67,4.67,0,0,1-2,4.09,10,10,0,0,1-5.71,1.38,15.49,15.49,0,0,1-4-.41A21.7,21.7,0,0,1,23,27.32l.76-3.63a19.92,19.92,0,0,0,2.32.75A12,12,0,0,0,29.2,24.8Z"/><path class="brand-path" d="M40.93,27.94V.72L45.29,0V9.32A13,13,0,0,1,47,8.89a10.24,10.24,0,0,1,1.89-.18,9.71,9.71,0,0,1,3.76.63A5.89,5.89,0,0,1,55,11.11a7,7,0,0,1,1.28,2.71,15.43,15.43,0,0,1,.37,3.53V27.94H52.31V18a14.53,14.53,0,0,0-.2-2.58,4.57,4.57,0,0,0-.65-1.73,2.66,2.66,0,0,0-1.2-1,5.15,5.15,0,0,0-1.88-.3,9,9,0,0,0-1.76.18,11.43,11.43,0,0,0-1.33.32v15Z"/><path class="brand-path" d="M78.84,18.54a13.39,13.39,0,0,1-.56,4,9.38,9.38,0,0,1-1.6,3.1,7.21,7.21,0,0,1-2.61,2,8.43,8.43,0,0,1-3.55.72A9,9,0,0,1,68.07,28a9.69,9.69,0,0,1-1.83-.72V34.6H61.88V9.72A33,33,0,0,1,65.16,9a24.5,24.5,0,0,1,4.1-.33,10.93,10.93,0,0,1,4,.69,8.23,8.23,0,0,1,3,2,8.54,8.54,0,0,1,1.91,3.09A11.74,11.74,0,0,1,78.84,18.54Zm-4.46.07a7,7,0,0,0-1.32-4.53,5.14,5.14,0,0,0-4.23-1.62c-.41,0-.83,0-1.28,0a7.34,7.34,0,0,0-1.31.23V23.51a6.83,6.83,0,0,0,1.53.74,6.13,6.13,0,0,0,2,.34A3.91,3.91,0,0,0,73.28,23,7.67,7.67,0,0,0,74.38,18.61Z"/><path class="brand-path" d="M100.37,18.5a12.19,12.19,0,0,1-.65,4.07,8.91,8.91,0,0,1-1.84,3.13,8.12,8.12,0,0,1-2.86,2,9.27,9.27,0,0,1-3.69.72,9.1,9.1,0,0,1-3.67-.72,8.27,8.27,0,0,1-2.85-2A9.09,9.09,0,0,1,83,22.57a11.94,11.94,0,0,1-.67-4.07A11.86,11.86,0,0,1,83,14.45a9.07,9.07,0,0,1,1.87-3.11,8.45,8.45,0,0,1,2.86-2,9.84,9.84,0,0,1,7.29,0,8.2,8.2,0,0,1,2.87,2,9.18,9.18,0,0,1,1.85,3.11A11.86,11.86,0,0,1,100.37,18.5Zm-4.47,0a7.35,7.35,0,0,0-1.2-4.44,4.28,4.28,0,0,0-6.74,0,7.35,7.35,0,0,0-1.2,4.44A7.51,7.51,0,0,0,88,23a4.25,4.25,0,0,0,6.74,0A7.51,7.51,0,0,0,95.9,18.5Z"/><path class="brand-path" d="M104.87,9.72a29.8,29.8,0,0,1,7.74-1,10.27,10.27,0,0,1,3.85.63,6,6,0,0,1,2.46,1.77,6.54,6.54,0,0,1,1.3,2.73,15.41,15.41,0,0,1,.38,3.51V27.94h-4.36V18a13.65,13.65,0,0,0-.2-2.58,4.56,4.56,0,0,0-.64-1.73,2.64,2.64,0,0,0-1.23-1,5.2,5.2,0,0,0-1.89-.3,14.94,14.94,0,0,0-1.73.1l-1.33.18v15.2h-4.35Z"/><path class="brand-path" d="M141.84,27.36a27.51,27.51,0,0,1-3.26.72,24.85,24.85,0,0,1-4.12.32,10.93,10.93,0,0,1-4-.68,8.23,8.23,0,0,1-3-2,8.58,8.58,0,0,1-1.91-3.1,11.64,11.64,0,0,1-.67-4.08,13.82,13.82,0,0,1,.56-4,8.84,8.84,0,0,1,1.64-3.12,7.31,7.31,0,0,1,2.63-2,8.66,8.66,0,0,1,3.56-.7,8,8,0,0,1,2.41.33,9.62,9.62,0,0,1,1.8.72v-9L141.84,0Zm-12.49-8.89A6.87,6.87,0,0,0,130.71,23a4.68,4.68,0,0,0,3.78,1.63,15.21,15.21,0,0,0,1.79-.09c.49-.06.89-.12,1.2-.19V13.54A6.42,6.42,0,0,0,136,12.8a5.89,5.89,0,0,0-2-.34,3.91,3.91,0,0,0-3.48,1.62A7.73,7.73,0,0,0,129.35,18.47Z"/></svg>
